<svg id="Group_135" data-name="Group 135" xmlns="http://www.w3.org/2000/svg" width="64.317" height="55.182" viewBox="0 0 64.317 55.182">
  <path id="Path_2" data-name="Path 2" d="M354.341,503.947h12.491v.574l.042.692.065.765.1.766.1.643.163.8.214.856.227.765.338.965.245.613.343.766.295.6.363.67.322.545.5.768.523.731.672.846.686.773.578.59.561.527.686.593.578.457.773.558.633.415.512.311.757.421.831.412.673.3.7.277.707.249.7.218.689.184.841.189.692.126.573.085.761.085.63.048.518.024.63.01h.459l.6-.029.409-.026.476-.042.515-.059.516-.073.5-.084.446-.087.439-.1.437-.107.447-.12.451-.134.405-.131.459-.16.49-.185.57-.236.451-.2.413-.2.423-.215.345-.185.451-.256.336-.2.246-.153.329-.214.34-.231.287-.2.263-.193.363-.279.4-.325.362-.308.3-.268.3-.282.263-.254.257-.259.286-.3.222-.242.281-.318.3-.356.257-.318.275-.357.257-.351.178-.253.207-.306.244-.377.2-.317.243-.414.222-.4.2-.381.216-.436.212-.458.186-.431.18-.445.15-.4.138-.393.131-.4.123-.407.122-.439.119-.474.106-.473.084-.421.074-.421.068-.451.056-.433.053-.513.039-.519.038-.532v-.687h12.491l0,.3-.008.491-.016.49-.013.292-.022.4-.024.364-.028.362-.035.385-.039.383-.045.392-.052.4-.055.392-.071.457-.082.485-.082.444-.1.506-.109.5-.118.5-.109.431-.109.409-.142.5-.122.409-.14.445-.137.414-.137.4-.135.376-.165.44-.152.387-.128.315-.129.308-.154.357-.159.357-.16.347-.16.335-.216.438-.207.4-.221.417-.2.356-.188.333-.178.308-.176.3-.168.277-.211.338-.207.322-.2.311-.251.371-.438.621-.234.319-.223.3-.2.264-.244.31-.219.272-.222.269-.215.255-.2.228-.23.262-.234.261-.337.365-.255.27-.26.268-.317.318-.266.26-.307.293-.283.264-.362.328-.331.291-.31.265-.259.216-.323.264-.273.218-.311.242-.319.241-.362.267-.516.367-.3.206-.415.277-.415.268-.463.288-.358.215-.384.224-.4.227-.355.194-.5.261-.4.2-.379.186-.352.167-.387.177-.5.219-.3.126-.281.115-.414.164-.328.125-.355.131-.379.135-.43.146-.354.115-.323.1-.32.1-.419.121-.455.124-.452.116-.389.094-.439.1-.572.12-.486.094-.5.087-.4.065-.39.058-.478.064-.485.058-.545.056-.419.037-.453.033-.345.021-1.78.049-1.181-.022-.761-.037-.546-.038-.47-.04-.562-.057-.511-.061-.591-.081-.607-.095-.652-.115-.688-.137-.714-.159-.726-.18-.722-.2-.623-.185-.524-.167-.614-.208-.619-.224-.659-.255-.623-.257-.707-.311-.691-.324-.487-.241-.375-.193-.533-.284-.51-.285-.5-.289-.563-.343-.589-.377-.572-.384-.576-.4-.564-.415-.517-.4-.411-.329-.491-.408-.594-.516-.475-.431-.53-.5-.384-.379-.385-.394-.4-.42-.5-.552-.5-.576-.521-.633-.517-.663-.372-.5-.416-.585-.374-.551-.412-.638-.413-.674-.363-.627-.363-.662-.369-.712-.306-.627-.325-.709-.312-.727-.26-.648-.265-.706-.23-.66-.2-.617-.2-.669-.246-.9-.148-.6-.159-.709-.143-.712-.122-.69-.12-.789-.083-.642-.085-.8-.06-.728-.044-.744-.022-.583-.014-.545Z" transform="translate(-354.341 -480.471)" fill="#fff"/>
  <circle id="Ellipse_1" data-name="Ellipse 1" cx="6.454" cy="6.454" r="6.454" transform="translate(0 0)" fill="#fff"/>
  <circle id="Ellipse_2" data-name="Ellipse 2" cx="6.454" cy="6.454" r="6.454" transform="translate(51.409 0)" fill="#fff"/>
</svg>
